<svg version="1.2" xmlns="http://www.w3.org/2000/svg" viewBox="0 0 1920 954" width="1920" height="954">
	<title>download-svg</title>
	<defs>
		<clipPath clipPathUnits="userSpaceOnUse" id="cp1">
			<path d="m1920 954h-1920v-954h1920z"/>
		</clipPath>
	</defs>
	<style>
		.s0 { opacity: .3;fill: #425a9e } 
		.s1 { opacity: .1;fill: #425a9e } 
		.s2 { opacity: .5;fill: #425a9e } 
		.s3 { fill: #0f2385 } 
	</style>
	<g id="Clip-Path" clip-path="url(#cp1)">
		<g id="Layer">
			<path id="Layer" class="s0" d="m598.4 416c-35.5 250.5 47.9 448.1 194.6 538.4l-247.2 5.6c-65.7-100.7 15.9-431.5 52.6-544zm1009.6-417c-432.2 0-746.8 180.7-850 271 90.3-157.1 176.8-246.1 208.7-271z"/>
			<path id="Layer" class="s1" d="m575.5 527c0 252.4 212.7 390.8 319 428.5h-347.5c-70-82.4-10.2-320 28.5-428.5z"/>
			<path id="Layer" fill-rule="evenodd" class="s2" d="m0 0v954h604.9c-14.4-59.6-21.9-121.3-21.9-184.5 0-324.4 198.6-609 497.4-769.5zm1920 0v954h-1315.1c99.4 412.7 526 723 1037.1 723 584.8 0 1059-406.3 1059-907.5 0-501.2-474.2-907.5-1059-907.5-206.4 0-398.9 50.6-561.7 138z"/>
			<path id="Layer" fill-rule="evenodd" class="s3" d="m0-4v954h634.2c-43.4-95.9-67.2-199.9-67.2-308.5 0-255.5 131.6-485.5 341.5-645.5zm1920 0l-0.1 954h-1285.8c150 331.3 534.6 567 985.3 567 581.3 0 1052.5-392 1052.5-875.5 0-483.5-471.2-875.5-1052.4-875.5-274.2 0-523.8 87.2-711.1 230z"/>
		</g>
	</g>
</svg>